<svg width="215" height="20" viewBox="0 0 215 20" fill="none" xmlns="http://www.w3.org/2000/svg">
<path d="M192.063 11.6405C191.127 11.6405 190.4 10.913 190.4 9.97765C190.4 8.973 191.197 8.14156 192.201 8.14156H210.874C211.22 8.14156 211.498 8.41871 211.498 8.76514V9.83908C211.498 10.8437 210.666 11.6405 209.661 11.6405H192.063ZM213.195 4.36545H192.132C189.222 4.36545 186.866 6.72119 186.866 9.59658V10.4973C186.866 13.4073 189.222 15.7631 192.132 15.7631H213.195C214.2 15.7631 214.996 16.5599 214.996 17.5645V18.9503C214.996 19.2967 214.754 19.5392 214.408 19.5392H192.409C187.42 19.5392 183.367 15.4859 183.367 10.4973V9.63122C183.367 4.60795 187.42 0.554688 192.409 0.554688H214.408C214.754 0.554688 214.996 0.831834 214.996 1.14362V2.52935C214.996 3.53401 214.2 4.36545 213.195 4.36545Z" fill="#004346"/>
<path d="M166.984 2.35614C166.984 1.35148 167.781 0.554688 168.786 0.554688H169.894C170.206 0.554688 170.483 0.831834 170.483 1.14362V17.7377C170.483 18.7424 169.687 19.5392 168.682 19.5392H167.573C167.227 19.5392 166.984 19.2967 166.984 18.9503V2.35614Z" fill="#004346"/>
<path d="M132.007 10.4973C132.007 13.4073 134.363 15.7631 137.273 15.7631H154.802C155.807 15.7631 156.638 16.5599 156.638 17.5645V18.9503C156.638 19.2967 156.361 19.5392 156.015 19.5392H137.55C132.561 19.5392 128.508 15.4859 128.508 10.4973V1.14362C128.508 0.831834 128.75 0.554688 129.097 0.554688H130.205C131.21 0.554688 132.007 1.35148 132.007 2.35614V10.4973Z" fill="#004346"/>
<path d="M114.2 9.59658C115.204 10.6359 115.828 12.368 115.793 13.9616C115.759 17.0795 113.091 19.5392 109.973 19.5392H84.753C84.4066 19.5392 84.1641 19.2967 84.1641 18.9503V1.14362C84.1641 0.831834 84.4066 0.554688 84.753 0.554688H109.696C112.71 0.554688 115.308 2.87579 115.482 5.88975C115.585 7.41405 115.066 8.52263 114.2 9.59658ZM87.9748 4.36545C87.8016 4.36545 87.663 4.50402 87.663 4.64259V7.86441C87.663 8.03763 87.8016 8.14156 87.9748 8.14156H110.077C111.151 8.14156 112.017 7.27548 111.983 6.20154C111.948 5.16224 111.047 4.36545 110.008 4.36545H87.9748ZM110.32 15.7631C111.359 15.7631 112.26 14.9663 112.294 13.927C112.329 12.853 111.463 11.6405 110.389 11.6405H87.9748C87.8016 11.6405 87.663 11.7791 87.663 11.9523V15.4513C87.663 15.6245 87.8016 15.7631 87.9748 15.7631H110.32Z" fill="#004346"/>
<path d="M42.268 19.5392C41.8869 19.5392 41.6791 19.1235 41.8869 18.8463L54.3931 1.97506C55.0513 1.07434 56.3678 0.554688 57.4764 0.554688C58.585 0.554688 59.936 1.07434 60.5943 1.97506L73.0658 18.8463C73.3083 19.1235 73.1005 19.5392 72.7194 19.5392H70.3983C69.6362 19.5392 68.9086 19.1928 68.4583 18.5692L57.7189 4.0883C57.6149 3.91508 57.3724 3.91508 57.2339 4.0883L46.5291 18.5692C46.0441 19.1928 45.3512 19.5392 44.5891 19.5392H42.268Z" fill="#004346"/>
<path d="M22.9155 0.554688C27.9042 0.554688 31.9574 4.60795 31.9574 9.63122V10.4973C31.9574 15.4859 27.9042 19.5392 22.9155 19.5392H0.917062C0.570628 19.5392 0.328125 19.2967 0.328125 18.9503V8.76514C0.328125 8.41871 0.570628 8.14156 0.917062 8.14156H2.02565C3.0303 8.14156 3.82709 8.973 3.82709 9.97765V15.4513C3.82709 15.6245 3.96567 15.7631 4.13888 15.7631H23.1927C26.1027 15.7631 28.4584 13.4073 28.4584 10.4973V9.59658C28.4584 6.72119 26.1027 4.36545 23.1927 4.36545H2.12958C1.12492 4.36545 0.328125 3.53401 0.328125 2.52935V1.14362C0.328125 0.831834 0.570628 0.554688 0.917062 0.554688H22.9155Z" fill="#004346"/>
</svg>
