<svg width="211" height="8" viewBox="0 0 211 8" fill="none" xmlns="http://www.w3.org/2000/svg">
<path d="M204.899 0.140625L209.782 7.3291V0.140625H210.215V7.71884H209.511L204.628 0.519536V7.71884H204.195V0.140625H204.899Z" fill="#004346"/>
<path d="M180.632 1.18059C181.361 0.429989 182.256 0.0546875 183.317 0.0546875C184.357 0.0546875 185.244 0.429989 185.981 1.18059C186.717 1.9312 187.085 2.8478 187.085 3.9304C187.085 5.00579 186.72 5.91878 185.991 6.66938C185.27 7.41999 184.378 7.79529 183.317 7.79529C182.242 7.79529 181.343 7.41999 180.622 6.66938C179.9 5.91878 179.539 5.00579 179.539 3.9304C179.539 2.85502 179.904 1.93841 180.632 1.18059ZM179.983 3.9304C179.983 4.88309 180.3 5.69504 180.936 6.36625C181.571 7.03747 182.365 7.37307 183.317 7.37307C184.263 7.37307 185.053 7.04108 185.688 6.37708C186.323 5.70587 186.641 4.89031 186.641 3.9304C186.641 2.97771 186.32 2.16576 185.677 1.49455C185.042 0.816117 184.256 0.476902 183.317 0.476902C182.372 0.476902 181.578 0.812508 180.936 1.48372C180.3 2.15493 179.983 2.97049 179.983 3.9304Z" fill="#004346"/>
<path d="M161.898 7.71884V0.140625H162.331V7.71884H161.898Z" fill="#004346"/>
<path d="M138.898 0.140625H144.853V0.552014H142.135V7.71884H141.692V0.552014H138.898V0.140625Z" fill="#004346"/>
<path d="M116.273 7.71884L119.456 0.140625H120.084L123.224 7.71884H122.747L121.903 5.68355H117.594L116.739 7.71884H116.273ZM121.741 5.27216L119.77 0.487058L117.746 5.27216H121.741Z" fill="#004346"/>
<path d="M93.9688 7.71884V0.140625H96.2422C97.3393 0.140625 98.2559 0.501492 98.992 1.22323C99.7354 1.93774 100.107 2.83991 100.107 3.92973C100.107 5.01955 99.739 5.92533 99.0029 6.64706C98.2667 7.36158 97.3465 7.71884 96.2422 7.71884H93.9688ZM94.4126 7.30745H96.2422C97.231 7.30745 98.0466 6.98628 98.6889 6.34393C99.3312 5.70159 99.6524 4.89686 99.6524 3.92973C99.6524 2.95539 99.3276 2.15066 98.6781 1.51553C98.0357 0.873186 97.2238 0.552014 96.2422 0.552014H94.4126V7.30745Z" fill="#004346"/>
<path d="M71.3131 0.140625L76.1956 7.3291V0.140625H76.6286V7.71884H75.925L71.0424 0.519536V7.71884H70.6094V0.140625H71.3131Z" fill="#004346"/>
<path d="M47.6704 0.140625V4.63342C47.6704 5.2469 47.8039 5.77015 48.071 6.20319C48.3452 6.62902 48.6736 6.93215 49.0562 7.11258C49.4387 7.2858 49.8465 7.3724 50.2795 7.3724C50.7125 7.3724 51.1203 7.2858 51.5028 7.11258C51.8854 6.93215 52.2101 6.62902 52.4772 6.20319C52.7514 5.77015 52.8886 5.2469 52.8886 4.63342V0.140625H53.3324V4.63342C53.3324 5.16751 53.2458 5.64385 53.0726 6.06246C52.8994 6.48106 52.6648 6.81306 52.3689 7.05845C52.0802 7.30384 51.7591 7.48788 51.4054 7.61058C51.0518 7.74049 50.6765 7.80545 50.2795 7.80545C49.8825 7.80545 49.5072 7.7441 49.1536 7.6214C48.7999 7.49149 48.4752 7.30384 48.1793 7.05845C47.8906 6.81306 47.6596 6.48106 47.4864 6.06246C47.3132 5.64385 47.2266 5.16751 47.2266 4.63342V0.140625H47.6704Z" fill="#004346"/>
<path d="M23.8044 1.18059C24.5333 0.429989 25.4283 0.0546875 26.4892 0.0546875C27.5285 0.0546875 28.4162 0.429989 29.1524 1.18059C29.8886 1.9312 30.2567 2.8478 30.2567 3.9304C30.2567 5.00579 29.8922 5.91878 29.1632 6.66938C28.4415 7.41999 27.5502 7.79529 26.4892 7.79529C25.4138 7.79529 24.5153 7.41999 23.7935 6.66938C23.0718 5.91878 22.7109 5.00579 22.7109 3.9304C22.7109 2.85502 23.0754 1.93841 23.8044 1.18059ZM23.1548 3.9304C23.1548 4.88309 23.4724 5.69504 24.1075 6.36625C24.7426 7.03747 25.5365 7.37307 26.4892 7.37307C27.4347 7.37307 28.225 7.04108 28.8601 6.37708C29.4952 5.70587 29.8128 4.89031 29.8128 3.9304C29.8128 2.97771 29.4916 2.16576 28.8493 1.49455C28.2142 0.816117 27.4275 0.476902 26.4892 0.476902C25.5437 0.476902 24.7498 0.812508 24.1075 1.48372C23.4724 2.15493 23.1548 2.97049 23.1548 3.9304Z" fill="#004346"/>
<path d="M6.05642 0.140625V0.552014H1.3471V3.72404H5.62338V4.13543H1.3471V7.71884H0.914062V0.140625H6.05642Z" fill="#004346"/>
</svg>
