<svg width="87" height="100" viewBox="0 0 87 100" fill="none" xmlns="http://www.w3.org/2000/svg">
<path d="M80.416 49.7622C77.4523 57.1709 59.5403 55.0507 40.4086 45.0266C21.2768 35.0025 8.17002 20.8703 11.1337 13.4616C14.0974 6.05285 32.0094 8.17304 51.1411 18.1972C70.2729 28.2213 83.3797 42.3534 80.416 49.7622Z" fill="#508991"/>
<path d="M80.4208 44.8605C83.6406 52.1279 70.3313 67.2573 50.6936 78.6529C31.0559 90.0485 12.5263 93.395 9.3065 86.1276C6.08672 78.8602 19.396 63.7308 39.0337 52.3352C58.6714 40.9396 77.201 37.5931 80.4208 44.8605Z" fill="#004346"/>
<path d="M15.6018 10.1363C23.9241 10.1896 30.5514 28.0749 30.4042 50.0841C30.2571 72.0933 23.3912 89.8921 15.0689 89.8388C6.74658 89.7854 0.11929 71.9002 0.266443 49.891C0.413595 27.8817 7.27946 10.083 15.6018 10.1363Z" fill="#172A3A"/>
</svg>
