<svg width="45" height="45" viewBox="0 0 45 45" fill="none" xmlns="http://www.w3.org/2000/svg">
<circle cx="22.5" cy="22.5" r="22" fill="white" stroke="black"/>
<path d="M32.2222 10C32.9589 10 33.6655 10.2927 34.1864 10.8136C34.7073 11.3345 35 12.0411 35 12.7778V32.2222C35 32.9589 34.7073 33.6655 34.1864 34.1864C33.6655 34.7073 32.9589 35 32.2222 35H12.7778C12.0411 35 11.3345 34.7073 10.8136 34.1864C10.2927 33.6655 10 32.9589 10 32.2222V12.7778C10 12.0411 10.2927 11.3345 10.8136 10.8136C11.3345 10.2927 12.0411 10 12.7778 10H32.2222ZM31.5278 31.5278V24.1667C31.5278 22.9658 31.0507 21.8142 30.2016 20.965C29.3525 20.1159 28.2008 19.6389 27 19.6389C25.8194 19.6389 24.4444 20.3611 23.7778 21.4444V19.9028H19.9028V31.5278H23.7778V24.6806C23.7778 23.6111 24.6389 22.7361 25.7083 22.7361C26.224 22.7361 26.7186 22.941 27.0833 23.3056C27.4479 23.6703 27.6528 24.1649 27.6528 24.6806V31.5278H31.5278ZM15.3889 17.7222C16.0077 17.7222 16.6012 17.4764 17.0388 17.0388C17.4764 16.6012 17.7222 16.0077 17.7222 15.3889C17.7222 14.0972 16.6806 13.0417 15.3889 13.0417C14.7664 13.0417 14.1693 13.289 13.7292 13.7292C13.289 14.1693 13.0417 14.7664 13.0417 15.3889C13.0417 16.6806 14.0972 17.7222 15.3889 17.7222ZM17.3194 31.5278V19.9028H13.4722V31.5278H17.3194Z" fill="black"/>
</svg>
