<svg width="45" height="45" viewBox="0 0 45 45" fill="none" xmlns="http://www.w3.org/2000/svg">
<circle cx="22.5" cy="22.5" r="22" fill="white" stroke="black"/>
<path d="M22.5 12.2523C25.8376 12.2523 26.2329 12.265 27.551 12.3251C28.7697 12.3808 29.4316 12.5844 29.8722 12.7556C30.4556 12.9823 30.872 13.2532 31.3094 13.6906C31.7469 14.128 32.0177 14.5444 32.2444 15.1278C32.4156 15.5684 32.6192 16.2303 32.6749 17.4489C32.735 18.7671 32.7477 19.1624 32.7477 22.5C32.7477 25.8377 32.735 26.233 32.6749 27.5511C32.6192 28.7698 32.4156 29.4316 32.2444 29.8722C32.0177 30.4556 31.7468 30.8721 31.3094 31.3095C30.872 31.7469 30.4556 32.0178 29.8722 32.2444C29.4316 32.4156 28.7697 32.6193 27.551 32.6749C26.2331 32.7351 25.8378 32.7478 22.5 32.7478C19.1621 32.7478 18.7668 32.7351 17.4489 32.6749C16.2302 32.6192 15.5684 32.4156 15.1278 32.2444C14.5444 32.0178 14.1279 31.7469 13.6905 31.3095C13.2531 30.872 12.9822 30.4556 12.7556 29.8722C12.5844 29.4317 12.3807 28.7698 12.3251 27.5511C12.2649 26.233 12.2522 25.8377 12.2522 22.5C12.2522 19.1624 12.2649 18.7671 12.3251 17.449C12.3808 16.2303 12.5844 15.5684 12.7556 15.1278C12.9822 14.5444 13.2531 14.128 13.6905 13.6906C14.128 13.2531 14.5444 12.9823 15.1278 12.7556C15.5683 12.5844 16.2302 12.3808 17.4489 12.3251C18.767 12.265 19.1623 12.2523 22.5 12.2523ZM22.5 10C19.1052 10 18.6795 10.0144 17.3463 10.0752C16.0157 10.1359 15.107 10.3473 14.312 10.6562C13.4899 10.9757 12.7929 11.4031 12.0979 12.098C11.403 12.793 10.9757 13.49 10.6562 14.312C10.3472 15.1071 10.1359 16.0158 10.0752 17.3463C10.0144 18.6795 10 19.1052 10 22.5C10 25.8948 10.0144 26.3205 10.0752 27.6537C10.1359 28.9843 10.3472 29.893 10.6562 30.688C10.9756 31.51 11.403 32.2071 12.0979 32.9021C12.7929 33.597 13.4899 34.0243 14.312 34.3438C15.1071 34.6528 16.0157 34.8641 17.3462 34.9248C18.6795 34.9856 19.1052 35 22.5 35C25.8948 35 26.3205 34.9856 27.6537 34.9248C28.9842 34.8641 29.8929 34.6528 30.6879 34.3438C31.51 34.0244 32.207 33.597 32.902 32.9021C33.5969 32.2071 34.0243 31.5101 34.3438 30.688C34.6527 29.8929 34.8641 28.9843 34.9248 27.6538C34.9856 26.3205 35 25.8948 35 22.5C35 19.1052 34.9856 18.6795 34.9248 17.3463C34.8641 16.0158 34.6527 15.1071 34.3438 14.3121C34.0243 13.49 33.5969 12.793 32.902 12.098C32.207 11.4031 31.51 10.9756 30.688 10.6562C29.8929 10.3473 28.9842 10.1359 27.6537 10.0752C26.3205 10.0144 25.8948 10 22.5 10ZM22.5 16.0811C18.9549 16.0811 16.0811 18.9551 16.0811 22.5C16.0811 26.0451 18.9549 28.9189 22.5 28.9189C26.045 28.9189 28.9189 26.0451 28.9189 22.5C28.9189 18.955 26.045 16.0811 22.5 16.0811ZM22.5 26.6667C20.1988 26.6667 18.3333 24.8012 18.3333 22.5C18.3333 20.1988 20.1988 18.3333 22.5 18.3333C24.8012 18.3333 26.6667 20.1988 26.6667 22.5C26.6667 24.8012 24.8012 26.6667 22.5 26.6667ZM30.6725 15.8274C30.6725 16.656 30.001 17.3274 29.1725 17.3274C28.344 17.3274 27.6725 16.656 27.6725 15.8274C27.6725 14.999 28.344 14.3274 29.1725 14.3274C30.001 14.3274 30.6725 14.999 30.6725 15.8274Z" fill="#0A0A08"/>
</svg>
