<svg width="302" height="99" viewBox="0 0 302 99" fill="none" xmlns="http://www.w3.org/2000/svg">
<path d="M80.1505 49.7214C77.1868 57.1301 59.2749 55.0099 40.1431 44.9858C21.0114 34.9617 7.90456 20.8295 10.8683 13.4208C13.832 6.01204 31.7439 8.13223 50.8757 18.1564C70.0074 28.1805 83.1142 42.3126 80.1505 49.7214Z" fill="#508991"/>
<path d="M80.1534 44.8186C83.3731 52.086 70.0638 67.2154 50.4261 78.611C30.7885 90.0066 12.2588 93.3532 9.03906 86.0857C5.81927 78.8183 19.1286 63.6889 38.7663 52.2933C58.4039 40.8977 76.9336 37.5512 80.1534 44.8186Z" fill="#004346"/>
<path d="M15.3377 10.0966C23.6601 10.1499 30.2874 28.0352 30.1402 50.0444C29.9931 72.0536 23.1272 89.8524 14.8049 89.7991C6.48254 89.7457 -0.144748 71.8605 0.00240384 49.8513C0.149556 27.842 7.01542 10.0433 15.3377 10.0966Z" fill="#172A3A"/>
<path d="M278.802 39.6004C277.867 39.6004 277.139 38.8729 277.139 37.9375C277.139 36.9329 277.936 36.1014 278.941 36.1014H297.613C297.96 36.1014 298.237 36.3786 298.237 36.725V37.799C298.237 38.8036 297.406 39.6004 296.401 39.6004H278.802ZM299.935 32.3253H278.871C275.961 32.3253 273.606 34.6811 273.606 37.5564V38.4572C273.606 41.3672 275.961 43.7229 278.871 43.7229H299.935C300.939 43.7229 301.736 44.5197 301.736 45.5244V46.9101C301.736 47.2566 301.493 47.4991 301.147 47.4991H279.149C274.16 47.4991 270.107 43.4458 270.107 38.4572V37.5911C270.107 32.5678 274.16 28.5146 279.149 28.5146H301.147C301.493 28.5146 301.736 28.7917 301.736 29.1035V30.4892C301.736 31.4939 300.939 32.3253 299.935 32.3253Z" fill="#004346"/>
<path d="M253.724 30.316C253.724 29.3114 254.521 28.5146 255.526 28.5146H256.635C256.946 28.5146 257.223 28.7917 257.223 29.1035V45.6976C257.223 46.7023 256.427 47.4991 255.422 47.4991H254.313C253.967 47.4991 253.724 47.2566 253.724 46.9101V30.316Z" fill="#004346"/>
<path d="M218.744 38.4572C218.744 41.3672 221.1 43.7229 224.01 43.7229H241.54C242.544 43.7229 243.376 44.5197 243.376 45.5244V46.9101C243.376 47.2566 243.098 47.4991 242.752 47.4991H224.287C219.299 47.4991 215.245 43.4458 215.245 38.4572V29.1035C215.245 28.7917 215.488 28.5146 215.834 28.5146H216.943C217.947 28.5146 218.744 29.3114 218.744 30.316V38.4572Z" fill="#004346"/>
<path d="M200.941 37.5564C201.946 38.5957 202.569 40.3279 202.535 41.9215C202.5 45.0394 199.833 47.4991 196.715 47.4991H171.494C171.148 47.4991 170.905 47.2566 170.905 46.9101V29.1035C170.905 28.7917 171.148 28.5146 171.494 28.5146H196.438C199.451 28.5146 202.05 30.8357 202.223 33.8496C202.327 35.3739 201.807 36.4825 200.941 37.5564ZM174.716 32.3253C174.543 32.3253 174.404 32.4639 174.404 32.6025V35.8243C174.404 35.9975 174.543 36.1014 174.716 36.1014H196.819C197.893 36.1014 198.759 35.2353 198.724 34.1614C198.689 33.1221 197.789 32.3253 196.749 32.3253H174.716ZM197.061 43.7229C198.1 43.7229 199.001 42.9261 199.036 41.8869C199.07 40.8129 198.204 39.6004 197.13 39.6004H174.716C174.543 39.6004 174.404 39.739 174.404 39.9122V43.4112C174.404 43.5844 174.543 43.7229 174.716 43.7229H197.061Z" fill="#004346"/>
<path d="M129.007 47.4991C128.626 47.4991 128.418 47.0833 128.626 46.8062L141.132 29.9349C141.79 29.0342 143.106 28.5146 144.215 28.5146C145.324 28.5146 146.675 29.0342 147.333 29.9349L159.804 46.8062C160.047 47.0833 159.839 47.4991 159.458 47.4991H157.137C156.375 47.4991 155.647 47.1526 155.197 46.529L144.457 32.0482C144.354 31.875 144.111 31.875 143.972 32.0482L133.268 46.529C132.783 47.1526 132.09 47.4991 131.328 47.4991H129.007Z" fill="#004346"/>
<path d="M109.653 28.5146C114.642 28.5146 118.695 32.5678 118.695 37.5911V38.4572C118.695 43.4458 114.642 47.4991 109.653 47.4991H87.6548C87.3083 47.4991 87.0658 47.2566 87.0658 46.9101V36.725C87.0658 36.3786 87.3083 36.1014 87.6548 36.1014H88.7633C89.768 36.1014 90.5648 36.9329 90.5648 37.9375V43.4112C90.5648 43.5844 90.7034 43.723 90.8766 43.723H109.93C112.84 43.723 115.196 41.3672 115.196 38.4572V37.5565C115.196 34.6811 112.84 32.3253 109.93 32.3253H88.8673C87.8626 32.3253 87.0658 31.4939 87.0658 30.4892V29.1035C87.0658 28.7917 87.3083 28.5146 87.6548 28.5146H109.653Z" fill="#004346"/>
<path d="M292.631 51.1076L297.513 58.2961V51.1076H297.947V58.6858H297.243L292.36 51.4865V58.6858H291.927V51.1076H292.631Z" fill="#004346"/>
<path d="M268.369 52.1469C269.098 51.3963 269.993 51.021 271.054 51.021C272.093 51.021 272.981 51.3963 273.717 52.1469C274.453 52.8975 274.821 53.8141 274.821 54.8967C274.821 55.9721 274.457 56.8851 273.728 57.6357C273.006 58.3863 272.115 58.7616 271.054 58.7616C269.978 58.7616 269.08 58.3863 268.358 57.6357C267.636 56.8851 267.275 55.9721 267.275 54.8967C267.275 53.8213 267.64 52.9047 268.369 52.1469ZM267.719 54.8967C267.719 55.8494 268.037 56.6614 268.672 57.3326C269.307 58.0038 270.101 58.3394 271.054 58.3394C271.999 58.3394 272.79 58.0074 273.425 57.3434C274.06 56.6722 274.377 55.8566 274.377 54.8967C274.377 53.944 274.056 53.1321 273.414 52.4609C272.779 51.7824 271.992 51.4432 271.054 51.4432C270.108 51.4432 269.314 51.7788 268.672 52.45C268.037 53.1213 267.719 53.9368 267.719 54.8967Z" fill="#004346"/>
<path d="M249.634 58.6858V51.1076H250.067V58.6858H249.634Z" fill="#004346"/>
<path d="M226.636 51.1076H232.59V51.519H229.873V58.6858H229.429V51.519H226.636V51.1076Z" fill="#004346"/>
<path d="M204.01 58.6858L207.193 51.1076H207.821L210.961 58.6858H210.484L209.64 56.6505H205.331L204.476 58.6858H204.01ZM209.478 56.2391L207.507 51.454L205.483 56.2391H209.478Z" fill="#004346"/>
<path d="M181.705 58.6858V51.1076H183.978C185.075 51.1076 185.992 51.4685 186.728 52.1902C187.472 52.9047 187.843 53.8069 187.843 54.8967C187.843 55.9865 187.475 56.8923 186.739 57.6141C186.003 58.3286 185.083 58.6858 183.978 58.6858H181.705ZM182.149 58.2744H183.978C184.967 58.2744 185.783 57.9533 186.425 57.3109C187.067 56.6686 187.389 55.8638 187.389 54.8967C187.389 53.9224 187.064 53.1176 186.414 52.4825C185.772 51.8402 184.96 51.519 183.978 51.519H182.149V58.2744Z" fill="#004346"/>
<path d="M159.043 51.1076L163.926 58.2961V51.1076H164.359V58.6858H163.655L158.772 51.4865V58.6858H158.339V51.1076H159.043Z" fill="#004346"/>
<path d="M135.403 51.1076V55.6004C135.403 56.2139 135.536 56.7371 135.803 57.1702C136.078 57.596 136.406 57.8991 136.789 58.0796C137.171 58.2528 137.579 58.3394 138.012 58.3394C138.445 58.3394 138.853 58.2528 139.235 58.0796C139.618 57.8991 139.943 57.596 140.21 57.1702C140.484 56.7371 140.621 56.2139 140.621 55.6004V51.1076H141.065V55.6004C141.065 56.1345 140.978 56.6108 140.805 57.0294C140.632 57.4481 140.397 57.7801 140.101 58.0254C139.813 58.2708 139.492 58.4549 139.138 58.5776C138.784 58.7075 138.409 58.7724 138.012 58.7724C137.615 58.7724 137.24 58.7111 136.886 58.5884C136.532 58.4585 136.208 58.2708 135.912 58.0254C135.623 57.7801 135.392 57.4481 135.219 57.0294C135.046 56.6108 134.959 56.1345 134.959 55.6004V51.1076H135.403Z" fill="#004346"/>
<path d="M111.54 52.1469C112.269 51.3963 113.164 51.021 114.225 51.021C115.264 51.021 116.152 51.3963 116.888 52.1469C117.624 52.8975 117.992 53.8141 117.992 54.8967C117.992 55.9721 117.628 56.8851 116.899 57.6357C116.177 58.3863 115.286 58.7616 114.225 58.7616C113.15 58.7616 112.251 58.3863 111.529 57.6357C110.808 56.8851 110.447 55.9721 110.447 54.8967C110.447 53.8213 110.811 52.9047 111.54 52.1469ZM110.891 54.8967C110.891 55.8494 111.208 56.6614 111.843 57.3326C112.478 58.0038 113.272 58.3394 114.225 58.3394C115.17 58.3394 115.961 58.0074 116.596 57.3434C117.231 56.6722 117.549 55.8566 117.549 54.8967C117.549 53.944 117.227 53.1321 116.585 52.4609C115.95 51.7824 115.163 51.4432 114.225 51.4432C113.28 51.4432 112.486 51.7788 111.843 52.45C111.208 53.1213 110.891 53.9368 110.891 54.8967Z" fill="#004346"/>
<path d="M93.7901 51.1076V51.519H89.0808V54.691H93.3571V55.1024H89.0808V58.6858H88.6478V51.1076H93.7901Z" fill="#004346"/>
<path d="M92.3557 63.5143C92.6837 63.5143 92.9597 63.5503 93.1837 63.6223C93.4117 63.6903 93.5937 63.8043 93.7297 63.9643C93.8697 64.1243 93.9717 64.3423 94.0357 64.6183C94.0997 64.8903 94.1317 65.2323 94.1317 65.6443C94.1317 66.0563 94.0997 66.4003 94.0357 66.6763C93.9717 66.9483 93.8697 67.1643 93.7297 67.3243C93.5937 67.4843 93.4117 67.6003 93.1837 67.6723C92.9597 67.7403 92.6837 67.7743 92.3557 67.7743C92.0397 67.7743 91.7497 67.7683 91.4857 67.7563C91.2217 67.7443 90.9697 67.7303 90.7297 67.7143L91.1137 67.0363C91.2657 67.0443 91.4457 67.0523 91.6537 67.0603C91.8657 67.0643 92.0997 67.0663 92.3557 67.0663C92.5597 67.0663 92.7197 67.0263 92.8357 66.9463C92.9557 66.8623 93.0397 66.7163 93.0877 66.5083C93.1397 66.3003 93.1657 66.0123 93.1657 65.6443C93.1657 65.2763 93.1397 64.9883 93.0877 64.7803C93.0397 64.5723 92.9557 64.4263 92.8357 64.3423C92.7197 64.2583 92.5597 64.2163 92.3557 64.2163C92.1117 64.2163 91.8937 64.2183 91.7017 64.2223C91.5097 64.2223 91.3217 64.2223 91.1377 64.2223L90.7297 63.5743C90.9697 63.5583 91.2197 63.5443 91.4797 63.5323C91.7437 63.5203 92.0357 63.5143 92.3557 63.5143ZM91.6477 63.5743V67.7143H90.7297V63.5743H91.6477Z" fill="#172A3A"/>
<path d="M96.6434 63.5743V67.7143H95.7314V63.5743H96.6434Z" fill="#172A3A"/>
<path d="M99.7453 63.4963C99.9493 63.4963 100.171 63.5083 100.411 63.5323C100.651 63.5523 100.885 63.5963 101.113 63.6643L101.053 64.2703C100.877 64.2663 100.671 64.2623 100.435 64.2583C100.199 64.2543 99.9673 64.2523 99.7393 64.2523C99.6273 64.2523 99.5313 64.2563 99.4513 64.2643C99.3753 64.2683 99.3133 64.2843 99.2653 64.3123C99.2173 64.3363 99.1833 64.3743 99.1633 64.4263C99.1433 64.4783 99.1333 64.5503 99.1333 64.6423C99.1333 64.7823 99.1653 64.8843 99.2293 64.9483C99.2973 65.0123 99.4113 65.0703 99.5713 65.1223L100.369 65.3803C100.701 65.4923 100.931 65.6443 101.059 65.8363C101.187 66.0283 101.251 66.2803 101.251 66.5923C101.251 66.8283 101.223 67.0243 101.167 67.1803C101.111 67.3363 101.023 67.4583 100.903 67.5463C100.783 67.6343 100.625 67.6963 100.429 67.7323C100.233 67.7723 99.9933 67.7923 99.7093 67.7923C99.5733 67.7923 99.3793 67.7823 99.1273 67.7623C98.8753 67.7463 98.5873 67.7023 98.2633 67.6303L98.3233 66.9823C98.5593 66.9863 98.7633 66.9923 98.9353 67.0003C99.1113 67.0043 99.2613 67.0083 99.3853 67.0123C99.5093 67.0123 99.6173 67.0123 99.7093 67.0123C99.8693 67.0123 99.9933 67.0023 100.081 66.9823C100.173 66.9623 100.237 66.9223 100.273 66.8623C100.309 66.8023 100.327 66.7163 100.327 66.6043C100.327 66.5083 100.313 66.4323 100.285 66.3763C100.261 66.3163 100.219 66.2703 100.159 66.2383C100.103 66.2023 100.025 66.1703 99.9253 66.1423L99.0853 65.8543C98.7693 65.7383 98.5453 65.5863 98.4133 65.3983C98.2813 65.2103 98.2153 64.9623 98.2153 64.6543C98.2153 64.4143 98.2433 64.2203 98.2993 64.0723C98.3593 63.9203 98.4493 63.8023 98.5693 63.7183C98.6933 63.6343 98.8513 63.5763 99.0433 63.5443C99.2393 63.5123 99.4733 63.4963 99.7453 63.4963Z" fill="#172A3A"/>
<path d="M104.413 63.5023C104.609 63.5023 104.775 63.5083 104.911 63.5203C105.051 63.5283 105.179 63.5423 105.295 63.5623C105.411 63.5823 105.531 63.6103 105.655 63.6463L105.583 64.3183C105.451 64.3103 105.329 64.3043 105.217 64.3003C105.109 64.2963 104.991 64.2943 104.863 64.2943C104.739 64.2903 104.589 64.2883 104.413 64.2883C104.209 64.2883 104.049 64.3283 103.933 64.4083C103.821 64.4883 103.741 64.6283 103.693 64.8283C103.645 65.0243 103.621 65.2963 103.621 65.6443C103.621 65.9923 103.645 66.2663 103.693 66.4663C103.741 66.6623 103.821 66.8003 103.933 66.8803C104.049 66.9603 104.209 67.0003 104.413 67.0003C104.689 67.0003 104.921 66.9963 105.109 66.9883C105.297 66.9803 105.483 66.9663 105.667 66.9463L105.745 67.6183C105.553 67.6783 105.357 67.7203 105.157 67.7443C104.957 67.7723 104.709 67.7863 104.413 67.7863C103.985 67.7863 103.641 67.7183 103.381 67.5823C103.125 67.4423 102.939 67.2163 102.823 66.9043C102.711 66.5923 102.655 66.1723 102.655 65.6443C102.655 65.1163 102.711 64.6963 102.823 64.3843C102.939 64.0723 103.125 63.8483 103.381 63.7123C103.641 63.5723 103.985 63.5023 104.413 63.5023Z" fill="#172A3A"/>
<path d="M108.812 63.4903C109.14 63.4903 109.418 63.5263 109.646 63.5983C109.874 63.6663 110.056 63.7823 110.192 63.9463C110.332 64.1063 110.434 64.3263 110.498 64.6063C110.562 64.8823 110.594 65.2283 110.594 65.6443C110.594 66.0603 110.562 66.4083 110.498 66.6883C110.434 66.9643 110.332 67.1843 110.192 67.3483C110.056 67.5083 109.874 67.6243 109.646 67.6963C109.418 67.7643 109.14 67.7983 108.812 67.7983C108.484 67.7983 108.206 67.7643 107.978 67.6963C107.75 67.6243 107.566 67.5083 107.426 67.3483C107.286 67.1843 107.184 66.9643 107.12 66.6883C107.056 66.4083 107.024 66.0603 107.024 65.6443C107.024 65.2283 107.056 64.8823 107.12 64.6063C107.184 64.3263 107.286 64.1063 107.426 63.9463C107.566 63.7823 107.75 63.6663 107.978 63.5983C108.206 63.5263 108.484 63.4903 108.812 63.4903ZM108.812 64.2163C108.6 64.2163 108.434 64.2583 108.314 64.3423C108.198 64.4263 108.114 64.5723 108.062 64.7803C108.014 64.9843 107.99 65.2723 107.99 65.6443C107.99 66.0123 108.014 66.3003 108.062 66.5083C108.114 66.7163 108.198 66.8623 108.314 66.9463C108.434 67.0303 108.6 67.0723 108.812 67.0723C109.02 67.0723 109.182 67.0303 109.298 66.9463C109.418 66.8623 109.502 66.7163 109.55 66.5083C109.602 66.3003 109.628 66.0123 109.628 65.6443C109.628 65.2723 109.602 64.9843 109.55 64.7803C109.502 64.5723 109.418 64.4263 109.298 64.3423C109.182 64.2583 109.02 64.2163 108.812 64.2163Z" fill="#172A3A"/>
<path d="M115.524 63.5743L114.396 67.4623C114.376 67.5343 114.336 67.5943 114.276 67.6423C114.22 67.6903 114.152 67.7143 114.072 67.7143H113.232C113.148 67.7143 113.076 67.6903 113.016 67.6423C112.96 67.5943 112.924 67.5343 112.908 67.4623L111.774 63.5743H112.722L113.478 66.5623C113.494 66.6383 113.51 66.7163 113.526 66.7963C113.546 66.8723 113.562 66.9483 113.574 67.0243H113.73C113.742 66.9483 113.756 66.8703 113.772 66.7903C113.792 66.7103 113.812 66.6323 113.832 66.5563L114.582 63.5743H115.524Z" fill="#172A3A"/>
<path d="M117.736 63.5563C117.96 63.5563 118.186 63.5583 118.414 63.5623C118.642 63.5623 118.866 63.5663 119.086 63.5743C119.306 63.5823 119.512 63.5963 119.704 63.6163L119.662 64.2823H118.072C117.972 64.2823 117.896 64.3083 117.844 64.3603C117.796 64.4123 117.772 64.4883 117.772 64.5883V66.7003C117.772 66.8003 117.796 66.8763 117.844 66.9283C117.896 66.9803 117.972 67.0063 118.072 67.0063H119.662L119.704 67.6723C119.512 67.6883 119.306 67.7023 119.086 67.7143C118.866 67.7223 118.642 67.7263 118.414 67.7263C118.186 67.7303 117.96 67.7323 117.736 67.7323C117.472 67.7323 117.258 67.6563 117.094 67.5043C116.934 67.3483 116.854 67.1463 116.854 66.8983V64.3903C116.854 64.1383 116.934 63.9363 117.094 63.7843C117.258 63.6323 117.472 63.5563 117.736 63.5563ZM116.962 65.2363H119.44V65.8843H116.962V65.2363Z" fill="#172A3A"/>
<path d="M122.848 63.5143C123.212 63.5143 123.506 63.5523 123.73 63.6283C123.958 63.7003 124.124 63.8263 124.228 64.0063C124.336 64.1823 124.39 64.4283 124.39 64.7443C124.39 64.9363 124.364 65.1063 124.312 65.2543C124.264 65.3983 124.182 65.5143 124.066 65.6023C123.95 65.6903 123.792 65.7463 123.592 65.7703V65.8003C123.664 65.8123 123.738 65.8403 123.814 65.8843C123.894 65.9283 123.968 65.9943 124.036 66.0823C124.104 66.1663 124.154 66.2803 124.186 66.4243L124.546 67.7143H123.58L123.262 66.4543C123.226 66.3183 123.172 66.2243 123.1 66.1723C123.032 66.1203 122.936 66.0943 122.812 66.0943C122.54 66.0943 122.31 66.0943 122.122 66.0943C121.938 66.0903 121.782 66.0863 121.654 66.0823C121.53 66.0783 121.418 66.0743 121.318 66.0703L121.336 65.4043H122.83C122.99 65.4043 123.116 65.3883 123.208 65.3563C123.304 65.3203 123.37 65.2583 123.406 65.1703C123.446 65.0823 123.466 64.9603 123.466 64.8043C123.466 64.6443 123.446 64.5223 123.406 64.4383C123.37 64.3503 123.304 64.2903 123.208 64.2583C123.116 64.2223 122.99 64.2043 122.83 64.2043C122.454 64.2043 122.136 64.2063 121.876 64.2103C121.616 64.2143 121.438 64.2203 121.342 64.2283L121.252 63.5743C121.42 63.5543 121.578 63.5403 121.726 63.5323C121.874 63.5243 122.036 63.5203 122.212 63.5203C122.388 63.5163 122.6 63.5143 122.848 63.5143ZM122.158 63.5743V67.7143H121.252V63.5743H122.158Z" fill="#172A3A"/>
<path d="M126.955 63.5743V67.7143H126.043V63.5743H126.955Z" fill="#172A3A"/>
<path d="M132.193 63.5743V67.3843C132.193 67.6043 132.083 67.7143 131.863 67.7143H131.359C131.259 67.7143 131.183 67.6923 131.131 67.6483C131.079 67.6003 131.031 67.5303 130.987 67.4383L129.841 65.2663C129.793 65.1743 129.745 65.0723 129.697 64.9603C129.653 64.8483 129.615 64.7403 129.583 64.6363H129.517C129.529 64.7443 129.539 64.8543 129.547 64.9663C129.555 65.0743 129.559 65.1823 129.559 65.2903V67.7143H128.689V63.9043C128.689 63.6843 128.801 63.5743 129.025 63.5743H129.523C129.619 63.5743 129.691 63.5983 129.739 63.6463C129.791 63.6903 129.841 63.7583 129.889 63.8503L130.999 65.9563C131.047 66.0483 131.097 66.1503 131.149 66.2623C131.201 66.3743 131.251 66.4903 131.299 66.6103H131.371C131.359 66.4903 131.349 66.3743 131.341 66.2623C131.337 66.1463 131.335 66.0323 131.335 65.9203L131.329 63.5743H132.193Z" fill="#172A3A"/>
<path d="M135.629 63.4903C135.809 63.4903 135.973 63.4963 136.121 63.5083C136.269 63.5203 136.409 63.5363 136.541 63.5563C136.677 63.5763 136.809 63.6063 136.937 63.6463L136.865 64.3123C136.725 64.3043 136.589 64.2983 136.457 64.2943C136.325 64.2903 136.193 64.2883 136.061 64.2883C135.929 64.2843 135.791 64.2823 135.647 64.2823C135.475 64.2823 135.331 64.3003 135.215 64.3363C135.103 64.3723 135.013 64.4403 134.945 64.5403C134.877 64.6363 134.827 64.7763 134.795 64.9603C134.767 65.1403 134.753 65.3723 134.753 65.6563C134.753 66.0003 134.775 66.2703 134.819 66.4663C134.863 66.6623 134.937 66.8023 135.041 66.8863C135.145 66.9663 135.285 67.0063 135.461 67.0063C135.581 67.0063 135.691 66.9943 135.791 66.9703C135.891 66.9463 135.983 66.9143 136.067 66.8743C136.151 66.8303 136.229 66.7883 136.301 66.7483L136.397 67.1803C136.337 67.2643 136.247 67.3543 136.127 67.4503C136.011 67.5463 135.869 67.6283 135.701 67.6963C135.533 67.7643 135.341 67.7983 135.125 67.7983C134.813 67.7983 134.557 67.7243 134.357 67.5763C134.161 67.4283 134.017 67.1963 133.925 66.8803C133.833 66.5603 133.787 66.1463 133.787 65.6383C133.787 65.0983 133.845 64.6723 133.961 64.3603C134.081 64.0483 134.275 63.8263 134.543 63.6943C134.815 63.5583 135.177 63.4903 135.629 63.4903ZM137.081 65.3263V67.7143H136.403L136.277 67.0843L136.193 66.9163V65.3263H137.081Z" fill="#172A3A"/>
<path d="M142.744 63.5743C142.82 63.5743 142.886 63.5963 142.942 63.6403C143.002 63.6843 143.042 63.7423 143.062 63.8143L144.262 67.7143H143.326L142.48 64.6723C142.464 64.6043 142.448 64.5363 142.432 64.4683C142.416 64.3963 142.402 64.3283 142.39 64.2643H142.228C142.216 64.3283 142.202 64.3963 142.186 64.4683C142.174 64.5363 142.158 64.6043 142.138 64.6723L141.292 67.7143H140.35L141.556 63.8143C141.576 63.7423 141.614 63.6843 141.67 63.6403C141.73 63.5963 141.798 63.5743 141.874 63.5743H142.744ZM143.38 65.9323V66.6223H141.232V65.9323H143.38Z" fill="#172A3A"/>
<path d="M149.21 63.5263C149.57 63.5263 149.856 63.5583 150.068 63.6223C150.284 63.6823 150.44 63.7903 150.536 63.9463C150.632 64.1023 150.68 64.3223 150.68 64.6063C150.68 64.9023 150.622 65.1283 150.506 65.2843C150.394 65.4363 150.208 65.5243 149.948 65.5483V65.5843C150.268 65.6123 150.492 65.7203 150.62 65.9083C150.748 66.0923 150.812 66.3503 150.812 66.6823C150.812 66.9663 150.762 67.1863 150.662 67.3423C150.566 67.4983 150.414 67.6083 150.206 67.6723C150.002 67.7323 149.734 67.7623 149.402 67.7623C149.134 67.7623 148.9 67.7603 148.7 67.7563C148.504 67.7563 148.322 67.7523 148.154 67.7443C147.986 67.7363 147.814 67.7263 147.638 67.7143L147.728 67.0783C147.824 67.0823 148.008 67.0863 148.28 67.0903C148.556 67.0943 148.876 67.0963 149.24 67.0963C149.408 67.0963 149.54 67.0803 149.636 67.0483C149.732 67.0163 149.798 66.9583 149.834 66.8743C149.874 66.7863 149.894 66.6623 149.894 66.5023C149.894 66.3303 149.874 66.2003 149.834 66.1123C149.794 66.0203 149.724 65.9563 149.624 65.9203C149.528 65.8843 149.394 65.8643 149.222 65.8603H147.722V65.2783H149.21C149.358 65.2743 149.474 65.2583 149.558 65.2303C149.646 65.2023 149.708 65.1483 149.744 65.0683C149.78 64.9883 149.798 64.8763 149.798 64.7323C149.798 64.5843 149.778 64.4723 149.738 64.3963C149.702 64.3163 149.638 64.2623 149.546 64.2343C149.454 64.2063 149.326 64.1923 149.162 64.1923C148.938 64.1923 148.74 64.1923 148.568 64.1923C148.396 64.1923 148.242 64.1943 148.106 64.1983C147.97 64.1983 147.844 64.2023 147.728 64.2103L147.638 63.5743C147.798 63.5583 147.952 63.5483 148.1 63.5443C148.252 63.5363 148.416 63.5323 148.592 63.5323C148.768 63.5283 148.974 63.5263 149.21 63.5263ZM148.538 63.5743V67.7143H147.638V63.5743H148.538Z" fill="#172A3A"/>
<path d="M154.026 63.4903C154.354 63.4903 154.632 63.5263 154.86 63.5983C155.088 63.6663 155.27 63.7823 155.406 63.9463C155.546 64.1063 155.648 64.3263 155.712 64.6063C155.776 64.8823 155.808 65.2283 155.808 65.6443C155.808 66.0603 155.776 66.4083 155.712 66.6883C155.648 66.9643 155.546 67.1843 155.406 67.3483C155.27 67.5083 155.088 67.6243 154.86 67.6963C154.632 67.7643 154.354 67.7983 154.026 67.7983C153.698 67.7983 153.42 67.7643 153.192 67.6963C152.964 67.6243 152.78 67.5083 152.64 67.3483C152.5 67.1843 152.398 66.9643 152.334 66.6883C152.27 66.4083 152.238 66.0603 152.238 65.6443C152.238 65.2283 152.27 64.8823 152.334 64.6063C152.398 64.3263 152.5 64.1063 152.64 63.9463C152.78 63.7823 152.964 63.6663 153.192 63.5983C153.42 63.5263 153.698 63.4903 154.026 63.4903ZM154.026 64.2163C153.814 64.2163 153.648 64.2583 153.528 64.3423C153.412 64.4263 153.328 64.5723 153.276 64.7803C153.228 64.9843 153.204 65.2723 153.204 65.6443C153.204 66.0123 153.228 66.3003 153.276 66.5083C153.328 66.7163 153.412 66.8623 153.528 66.9463C153.648 67.0303 153.814 67.0723 154.026 67.0723C154.234 67.0723 154.396 67.0303 154.512 66.9463C154.632 66.8623 154.716 66.7163 154.764 66.5083C154.816 66.3003 154.842 66.0123 154.842 65.6443C154.842 65.2723 154.816 64.9843 154.764 64.7803C154.716 64.5723 154.632 64.4263 154.512 64.3423C154.396 64.2583 154.234 64.2163 154.026 64.2163Z" fill="#172A3A"/>
<path d="M160.911 63.5743V67.3843C160.911 67.6043 160.801 67.7143 160.581 67.7143H160.077C159.977 67.7143 159.901 67.6923 159.849 67.6483C159.797 67.6003 159.749 67.5303 159.705 67.4383L158.559 65.2663C158.511 65.1743 158.463 65.0723 158.415 64.9603C158.371 64.8483 158.333 64.7403 158.301 64.6363H158.235C158.247 64.7443 158.257 64.8543 158.265 64.9663C158.273 65.0743 158.277 65.1823 158.277 65.2903V67.7143H157.407V63.9043C157.407 63.6843 157.519 63.5743 157.743 63.5743H158.241C158.337 63.5743 158.409 63.5983 158.457 63.6463C158.509 63.6903 158.559 63.7583 158.607 63.8503L159.717 65.9563C159.765 66.0483 159.815 66.1503 159.867 66.2623C159.919 66.3743 159.969 66.4903 160.017 66.6103H160.089C160.077 66.4903 160.067 66.3743 160.059 66.2623C160.055 66.1463 160.053 66.0323 160.053 65.9203L160.047 63.5743H160.911Z" fill="#172A3A"/>
<path d="M164.263 63.5143C164.591 63.5143 164.867 63.5503 165.091 63.6223C165.319 63.6903 165.501 63.8043 165.637 63.9643C165.777 64.1243 165.879 64.3423 165.943 64.6183C166.007 64.8903 166.039 65.2323 166.039 65.6443C166.039 66.0563 166.007 66.4003 165.943 66.6763C165.879 66.9483 165.777 67.1643 165.637 67.3243C165.501 67.4843 165.319 67.6003 165.091 67.6723C164.867 67.7403 164.591 67.7743 164.263 67.7743C163.947 67.7743 163.657 67.7683 163.393 67.7563C163.129 67.7443 162.877 67.7303 162.637 67.7143L163.021 67.0363C163.173 67.0443 163.353 67.0523 163.561 67.0603C163.773 67.0643 164.007 67.0663 164.263 67.0663C164.467 67.0663 164.627 67.0263 164.743 66.9463C164.863 66.8623 164.947 66.7163 164.995 66.5083C165.047 66.3003 165.073 66.0123 165.073 65.6443C165.073 65.2763 165.047 64.9883 164.995 64.7803C164.947 64.5723 164.863 64.4263 164.743 64.3423C164.627 64.2583 164.467 64.2163 164.263 64.2163C164.019 64.2163 163.801 64.2183 163.609 64.2223C163.417 64.2223 163.229 64.2223 163.045 64.2223L162.637 63.5743C162.877 63.5583 163.127 63.5443 163.387 63.5323C163.651 63.5203 163.943 63.5143 164.263 63.5143ZM163.555 63.5743V67.7143H162.637V63.5743H163.555Z" fill="#172A3A"/>
<path d="M170.734 63.5743V66.6703C170.734 66.7703 170.762 66.8463 170.818 66.8983C170.874 66.9503 170.954 66.9763 171.058 66.9763H172.504L172.546 67.6663C172.262 67.6983 171.964 67.7163 171.652 67.7203C171.344 67.7283 171.036 67.7323 170.728 67.7323C170.428 67.7323 170.2 67.6523 170.044 67.4923C169.892 67.3283 169.816 67.1203 169.816 66.8683V63.5743H170.734Z" fill="#172A3A"/>
<path d="M174.863 63.5743V67.7143H173.951V63.5743H174.863Z" fill="#172A3A"/>
<path d="M180.1 63.5743V67.3843C180.1 67.6043 179.99 67.7143 179.77 67.7143H179.266C179.166 67.7143 179.09 67.6923 179.038 67.6483C178.986 67.6003 178.938 67.5303 178.894 67.4383L177.748 65.2663C177.7 65.1743 177.652 65.0723 177.604 64.9603C177.56 64.8483 177.522 64.7403 177.49 64.6363H177.424C177.436 64.7443 177.446 64.8543 177.454 64.9663C177.462 65.0743 177.466 65.1823 177.466 65.2903V67.7143H176.596V63.9043C176.596 63.6843 176.708 63.5743 176.932 63.5743H177.43C177.526 63.5743 177.598 63.5983 177.646 63.6463C177.698 63.6903 177.748 63.7583 177.796 63.8503L178.906 65.9563C178.954 66.0483 179.004 66.1503 179.056 66.2623C179.108 66.3743 179.158 66.4903 179.206 66.6103H179.278C179.266 66.4903 179.256 66.3743 179.248 66.2623C179.244 66.1463 179.242 66.0323 179.242 65.9203L179.236 63.5743H180.1Z" fill="#172A3A"/>
<path d="M185.115 63.5743L184.035 65.2423C183.991 65.3143 183.943 65.3763 183.891 65.4283C183.839 65.4803 183.787 65.5243 183.735 65.5603V65.5783C183.791 65.6103 183.851 65.6583 183.915 65.7223C183.979 65.7863 184.031 65.8543 184.071 65.9263L185.187 67.7143H184.161L182.883 65.5483L184.125 63.5743H185.115ZM182.745 63.5743V64.7443C182.745 64.8803 182.735 65.0163 182.715 65.1523C182.695 65.2843 182.663 65.4143 182.619 65.5423C182.651 65.6663 182.679 65.7943 182.703 65.9263C182.731 66.0543 182.745 66.1743 182.745 66.2863V67.7143H181.833V63.5743H182.745ZM183.213 65.2423V65.8783H182.469V65.2423H183.213Z" fill="#172A3A"/>
<path d="M187.447 63.5743V67.7143H186.535V63.5743H187.447Z" fill="#172A3A"/>
<path d="M192.685 63.5743V67.3843C192.685 67.6043 192.575 67.7143 192.355 67.7143H191.851C191.751 67.7143 191.675 67.6923 191.623 67.6483C191.571 67.6003 191.523 67.5303 191.479 67.4383L190.333 65.2663C190.285 65.1743 190.237 65.0723 190.189 64.9603C190.145 64.8483 190.107 64.7403 190.075 64.6363H190.009C190.021 64.7443 190.031 64.8543 190.039 64.9663C190.047 65.0743 190.051 65.1823 190.051 65.2903V67.7143H189.181V63.9043C189.181 63.6843 189.293 63.5743 189.517 63.5743H190.015C190.111 63.5743 190.183 63.5983 190.231 63.6463C190.283 63.6903 190.333 63.7583 190.381 63.8503L191.491 65.9563C191.539 66.0483 191.589 66.1503 191.641 66.2623C191.693 66.3743 191.743 66.4903 191.791 66.6103H191.863C191.851 66.4903 191.841 66.3743 191.833 66.2623C191.829 66.1463 191.827 66.0323 191.827 65.9203L191.821 63.5743H192.685Z" fill="#172A3A"/>
<path d="M196.121 63.4903C196.301 63.4903 196.465 63.4963 196.613 63.5083C196.761 63.5203 196.901 63.5363 197.033 63.5563C197.169 63.5763 197.301 63.6063 197.429 63.6463L197.357 64.3123C197.217 64.3043 197.081 64.2983 196.949 64.2943C196.817 64.2903 196.685 64.2883 196.553 64.2883C196.421 64.2843 196.283 64.2823 196.139 64.2823C195.967 64.2823 195.823 64.3003 195.707 64.3363C195.595 64.3723 195.505 64.4403 195.437 64.5403C195.369 64.6363 195.319 64.7763 195.287 64.9603C195.259 65.1403 195.245 65.3723 195.245 65.6563C195.245 66.0003 195.267 66.2703 195.311 66.4663C195.355 66.6623 195.429 66.8023 195.533 66.8863C195.637 66.9663 195.777 67.0063 195.953 67.0063C196.073 67.0063 196.183 66.9943 196.283 66.9703C196.383 66.9463 196.475 66.9143 196.559 66.8743C196.643 66.8303 196.721 66.7883 196.793 66.7483L196.889 67.1803C196.829 67.2643 196.739 67.3543 196.619 67.4503C196.503 67.5463 196.361 67.6283 196.193 67.6963C196.025 67.7643 195.833 67.7983 195.617 67.7983C195.305 67.7983 195.049 67.7243 194.849 67.5763C194.653 67.4283 194.509 67.1963 194.417 66.8803C194.325 66.5603 194.279 66.1463 194.279 65.6383C194.279 65.0983 194.337 64.6723 194.453 64.3603C194.573 64.0483 194.767 63.8263 195.035 63.6943C195.307 63.5583 195.669 63.4903 196.121 63.4903ZM197.573 65.3263V67.7143H196.895L196.769 67.0843L196.685 66.9163V65.3263H197.573Z" fill="#172A3A"/>
<path d="M202.315 63.5743V67.7143H201.403V63.5743H202.315Z" fill="#172A3A"/>
<path d="M207.553 63.5743V67.3843C207.553 67.6043 207.443 67.7143 207.223 67.7143H206.719C206.619 67.7143 206.543 67.6923 206.491 67.6483C206.439 67.6003 206.391 67.5303 206.347 67.4383L205.201 65.2663C205.153 65.1743 205.105 65.0723 205.057 64.9603C205.013 64.8483 204.975 64.7403 204.943 64.6363H204.877C204.889 64.7443 204.899 64.8543 204.907 64.9663C204.915 65.0743 204.919 65.1823 204.919 65.2903V67.7143H204.049V63.9043C204.049 63.6843 204.161 63.5743 204.385 63.5743H204.883C204.979 63.5743 205.051 63.5983 205.099 63.6463C205.151 63.6903 205.201 63.7583 205.249 63.8503L206.359 65.9563C206.407 66.0483 206.457 66.1503 206.509 66.2623C206.561 66.3743 206.611 66.4903 206.659 66.6103H206.731C206.719 66.4903 206.709 66.3743 206.701 66.2623C206.697 66.1463 206.695 66.0323 206.695 65.9203L206.689 63.5743H207.553Z" fill="#172A3A"/>
<path d="M210.905 63.5143C211.233 63.5143 211.509 63.5503 211.733 63.6223C211.961 63.6903 212.143 63.8043 212.279 63.9643C212.419 64.1243 212.521 64.3423 212.585 64.6183C212.649 64.8903 212.681 65.2323 212.681 65.6443C212.681 66.0563 212.649 66.4003 212.585 66.6763C212.521 66.9483 212.419 67.1643 212.279 67.3243C212.143 67.4843 211.961 67.6003 211.733 67.6723C211.509 67.7403 211.233 67.7743 210.905 67.7743C210.589 67.7743 210.299 67.7683 210.035 67.7563C209.771 67.7443 209.519 67.7303 209.279 67.7143L209.663 67.0363C209.815 67.0443 209.995 67.0523 210.203 67.0603C210.415 67.0643 210.649 67.0663 210.905 67.0663C211.109 67.0663 211.269 67.0263 211.385 66.9463C211.505 66.8623 211.589 66.7163 211.637 66.5083C211.689 66.3003 211.715 66.0123 211.715 65.6443C211.715 65.2763 211.689 64.9883 211.637 64.7803C211.589 64.5723 211.505 64.4263 211.385 64.3423C211.269 64.2583 211.109 64.2163 210.905 64.2163C210.661 64.2163 210.443 64.2183 210.251 64.2223C210.059 64.2223 209.871 64.2223 209.687 64.2223L209.279 63.5743C209.519 63.5583 209.769 63.5443 210.029 63.5323C210.293 63.5203 210.585 63.5143 210.905 63.5143ZM210.197 63.5743V67.7143H209.279V63.5743H210.197Z" fill="#172A3A"/>
<path d="M215.193 63.5743V67.7143H214.281V63.5743H215.193Z" fill="#172A3A"/>
<path d="M220.305 63.5743L219.177 67.4623C219.157 67.5343 219.117 67.5943 219.057 67.6423C219.001 67.6903 218.933 67.7143 218.853 67.7143H218.013C217.929 67.7143 217.857 67.6903 217.797 67.6423C217.741 67.5943 217.705 67.5343 217.689 67.4623L216.555 63.5743H217.503L218.259 66.5623C218.275 66.6383 218.291 66.7163 218.307 66.7963C218.327 66.8723 218.343 66.9483 218.355 67.0243H218.511C218.523 66.9483 218.537 66.8703 218.553 66.7903C218.573 66.7103 218.593 66.6323 218.613 66.5563L219.363 63.5743H220.305Z" fill="#172A3A"/>
<path d="M222.582 63.5743V67.7143H221.67V63.5743H222.582Z" fill="#172A3A"/>
<path d="M225.942 63.5143C226.27 63.5143 226.546 63.5503 226.77 63.6223C226.998 63.6903 227.18 63.8043 227.316 63.9643C227.456 64.1243 227.558 64.3423 227.622 64.6183C227.686 64.8903 227.718 65.2323 227.718 65.6443C227.718 66.0563 227.686 66.4003 227.622 66.6763C227.558 66.9483 227.456 67.1643 227.316 67.3243C227.18 67.4843 226.998 67.6003 226.77 67.6723C226.546 67.7403 226.27 67.7743 225.942 67.7743C225.626 67.7743 225.336 67.7683 225.072 67.7563C224.808 67.7443 224.556 67.7303 224.316 67.7143L224.7 67.0363C224.852 67.0443 225.032 67.0523 225.24 67.0603C225.452 67.0643 225.686 67.0663 225.942 67.0663C226.146 67.0663 226.306 67.0263 226.422 66.9463C226.542 66.8623 226.626 66.7163 226.674 66.5083C226.726 66.3003 226.752 66.0123 226.752 65.6443C226.752 65.2763 226.726 64.9883 226.674 64.7803C226.626 64.5723 226.542 64.4263 226.422 64.3423C226.306 64.2583 226.146 64.2163 225.942 64.2163C225.698 64.2163 225.48 64.2183 225.288 64.2223C225.096 64.2223 224.908 64.2223 224.724 64.2223L224.316 63.5743C224.556 63.5583 224.806 63.5443 225.066 63.5323C225.33 63.5203 225.622 63.5143 225.942 63.5143ZM225.234 63.5743V67.7143H224.316V63.5743H225.234Z" fill="#172A3A"/>
<path d="M232.624 63.5743V66.0643C232.624 66.4843 232.572 66.8223 232.468 67.0783C232.364 67.3303 232.192 67.5143 231.952 67.6303C231.716 67.7423 231.4 67.7983 231.004 67.7983C230.584 67.7983 230.248 67.7423 229.996 67.6303C229.744 67.5143 229.562 67.3303 229.45 67.0783C229.338 66.8223 229.282 66.4843 229.282 66.0643V63.5743H230.2V66.0643C230.2 66.3243 230.222 66.5283 230.266 66.6763C230.314 66.8203 230.394 66.9223 230.506 66.9823C230.618 67.0423 230.768 67.0723 230.956 67.0723C231.144 67.0723 231.292 67.0423 231.4 66.9823C231.512 66.9223 231.59 66.8203 231.634 66.6763C231.682 66.5283 231.706 66.3243 231.706 66.0643V63.5743H232.624Z" fill="#172A3A"/>
<path d="M236.264 63.5743C236.34 63.5743 236.406 63.5963 236.462 63.6403C236.522 63.6843 236.562 63.7423 236.582 63.8143L237.782 67.7143H236.846L236 64.6723C235.984 64.6043 235.968 64.5363 235.952 64.4683C235.936 64.3963 235.922 64.3283 235.91 64.2643H235.748C235.736 64.3283 235.722 64.3963 235.706 64.4683C235.694 64.5363 235.678 64.6043 235.658 64.6723L234.812 67.7143H233.87L235.076 63.8143C235.096 63.7423 235.134 63.6843 235.19 63.6403C235.25 63.5963 235.318 63.5743 235.394 63.5743H236.264ZM236.9 65.9323V66.6223H234.752V65.9323H236.9Z" fill="#172A3A"/>
<path d="M240.01 63.5743V66.6703C240.01 66.7703 240.038 66.8463 240.094 66.8983C240.15 66.9503 240.23 66.9763 240.334 66.9763H241.78L241.822 67.6663C241.538 67.6983 241.24 67.7163 240.928 67.7203C240.62 67.7283 240.312 67.7323 240.004 67.7323C239.704 67.7323 239.476 67.6523 239.32 67.4923C239.168 67.3283 239.092 67.1203 239.092 66.8683V63.5743H240.01Z" fill="#172A3A"/>
<path d="M244.589 63.4963C244.793 63.4963 245.015 63.5083 245.255 63.5323C245.495 63.5523 245.729 63.5963 245.957 63.6643L245.897 64.2703C245.721 64.2663 245.515 64.2623 245.279 64.2583C245.043 64.2543 244.811 64.2523 244.583 64.2523C244.471 64.2523 244.375 64.2563 244.295 64.2643C244.219 64.2683 244.157 64.2843 244.109 64.3123C244.061 64.3363 244.027 64.3743 244.007 64.4263C243.987 64.4783 243.977 64.5503 243.977 64.6423C243.977 64.7823 244.009 64.8843 244.073 64.9483C244.141 65.0123 244.255 65.0703 244.415 65.1223L245.213 65.3803C245.545 65.4923 245.775 65.6443 245.903 65.8363C246.031 66.0283 246.095 66.2803 246.095 66.5923C246.095 66.8283 246.067 67.0243 246.011 67.1803C245.955 67.3363 245.867 67.4583 245.747 67.5463C245.627 67.6343 245.469 67.6963 245.273 67.7323C245.077 67.7723 244.837 67.7923 244.553 67.7923C244.417 67.7923 244.223 67.7823 243.971 67.7623C243.719 67.7463 243.431 67.7023 243.107 67.6303L243.167 66.9823C243.403 66.9863 243.607 66.9923 243.779 67.0003C243.955 67.0043 244.105 67.0083 244.229 67.0123C244.353 67.0123 244.461 67.0123 244.553 67.0123C244.713 67.0123 244.837 67.0023 244.925 66.9823C245.017 66.9623 245.081 66.9223 245.117 66.8623C245.153 66.8023 245.171 66.7163 245.171 66.6043C245.171 66.5083 245.157 66.4323 245.129 66.3763C245.105 66.3163 245.063 66.2703 245.003 66.2383C244.947 66.2023 244.869 66.1703 244.769 66.1423L243.929 65.8543C243.613 65.7383 243.389 65.5863 243.257 65.3983C243.125 65.2103 243.059 64.9623 243.059 64.6543C243.059 64.4143 243.087 64.2203 243.143 64.0723C243.203 63.9203 243.293 63.8023 243.413 63.7183C243.537 63.6343 243.695 63.5763 243.887 63.5443C244.083 63.5123 244.317 63.4963 244.589 63.4963Z" fill="#172A3A"/>
<path d="M250.684 63.5563C250.908 63.5563 251.134 63.5583 251.362 63.5623C251.59 63.5623 251.814 63.5663 252.034 63.5743C252.254 63.5823 252.46 63.5963 252.652 63.6163L252.61 64.2823H251.02C250.92 64.2823 250.844 64.3083 250.792 64.3603C250.744 64.4123 250.72 64.4883 250.72 64.5883V66.7003C250.72 66.8003 250.744 66.8763 250.792 66.9283C250.844 66.9803 250.92 67.0063 251.02 67.0063H252.61L252.652 67.6723C252.46 67.6883 252.254 67.7023 252.034 67.7143C251.814 67.7223 251.59 67.7263 251.362 67.7263C251.134 67.7303 250.908 67.7323 250.684 67.7323C250.42 67.7323 250.206 67.6563 250.042 67.5043C249.882 67.3483 249.802 67.1463 249.802 66.8983V64.3903C249.802 64.1383 249.882 63.9363 250.042 63.7843C250.206 63.6323 250.42 63.5563 250.684 63.5563ZM249.91 65.2363H252.388V65.8843H249.91V65.2363Z" fill="#172A3A"/>
<path d="M257.578 63.5743L256.45 67.4623C256.43 67.5343 256.39 67.5943 256.33 67.6423C256.274 67.6903 256.206 67.7143 256.126 67.7143H255.286C255.202 67.7143 255.13 67.6903 255.07 67.6423C255.014 67.5943 254.978 67.5343 254.962 67.4623L253.828 63.5743H254.776L255.532 66.5623C255.548 66.6383 255.564 66.7163 255.58 66.7963C255.6 66.8723 255.616 66.9483 255.628 67.0243H255.784C255.796 66.9483 255.81 66.8703 255.826 66.7903C255.846 66.7103 255.866 66.6323 255.886 66.5563L256.636 63.5743H257.578Z" fill="#172A3A"/>
<path d="M259.79 63.5563C260.014 63.5563 260.24 63.5583 260.468 63.5623C260.696 63.5623 260.92 63.5663 261.14 63.5743C261.36 63.5823 261.566 63.5963 261.758 63.6163L261.716 64.2823H260.126C260.026 64.2823 259.95 64.3083 259.898 64.3603C259.85 64.4123 259.826 64.4883 259.826 64.5883V66.7003C259.826 66.8003 259.85 66.8763 259.898 66.9283C259.95 66.9803 260.026 67.0063 260.126 67.0063H261.716L261.758 67.6723C261.566 67.6883 261.36 67.7023 261.14 67.7143C260.92 67.7223 260.696 67.7263 260.468 67.7263C260.24 67.7303 260.014 67.7323 259.79 67.7323C259.526 67.7323 259.312 67.6563 259.148 67.5043C258.988 67.3483 258.908 67.1463 258.908 66.8983V64.3903C258.908 64.1383 258.988 63.9363 259.148 63.7843C259.312 63.6323 259.526 63.5563 259.79 63.5563ZM259.016 65.2363H261.494V65.8843H259.016V65.2363Z" fill="#172A3A"/>
<path d="M264.903 63.5143C265.267 63.5143 265.561 63.5523 265.785 63.6283C266.013 63.7003 266.179 63.8263 266.283 64.0063C266.391 64.1823 266.445 64.4283 266.445 64.7443C266.445 64.9363 266.419 65.1063 266.367 65.2543C266.319 65.3983 266.237 65.5143 266.121 65.6023C266.005 65.6903 265.847 65.7463 265.647 65.7703V65.8003C265.719 65.8123 265.793 65.8403 265.869 65.8843C265.949 65.9283 266.023 65.9943 266.091 66.0823C266.159 66.1663 266.209 66.2803 266.241 66.4243L266.601 67.7143H265.635L265.317 66.4543C265.281 66.3183 265.227 66.2243 265.155 66.1723C265.087 66.1203 264.991 66.0943 264.867 66.0943C264.595 66.0943 264.365 66.0943 264.177 66.0943C263.993 66.0903 263.837 66.0863 263.709 66.0823C263.585 66.0783 263.473 66.0743 263.373 66.0703L263.391 65.4043H264.885C265.045 65.4043 265.171 65.3883 265.263 65.3563C265.359 65.3203 265.425 65.2583 265.461 65.1703C265.501 65.0823 265.521 64.9603 265.521 64.8043C265.521 64.6443 265.501 64.5223 265.461 64.4383C265.425 64.3503 265.359 64.2903 265.263 64.2583C265.171 64.2223 265.045 64.2043 264.885 64.2043C264.509 64.2043 264.191 64.2063 263.931 64.2103C263.671 64.2143 263.493 64.2203 263.397 64.2283L263.307 63.5743C263.475 63.5543 263.633 63.5403 263.781 63.5323C263.929 63.5243 264.091 63.5203 264.267 63.5203C264.443 63.5163 264.655 63.5143 264.903 63.5143ZM264.213 63.5743V67.7143H263.307V63.5743H264.213Z" fill="#172A3A"/>
<path d="M271.244 63.5743L269.846 66.4003H268.982L267.578 63.5743H268.532L269.228 65.0983C269.264 65.1783 269.294 65.2643 269.318 65.3563C269.342 65.4483 269.364 65.5363 269.384 65.6203H269.444C269.468 65.5363 269.492 65.4483 269.516 65.3563C269.54 65.2643 269.568 65.1783 269.6 65.0983L270.29 63.5743H271.244ZM269.87 65.8423V67.7143H268.952V65.8423H269.87Z" fill="#172A3A"/>
<path d="M277.852 63.5743L277.174 67.4623C277.162 67.5343 277.126 67.5943 277.066 67.6423C277.006 67.6903 276.934 67.7143 276.85 67.7143H275.992C275.912 67.7143 275.84 67.6903 275.776 67.6423C275.716 67.5943 275.68 67.5323 275.668 67.4563L275.206 64.7623C275.194 64.6703 275.182 64.5803 275.17 64.4923C275.158 64.4003 275.146 64.3103 275.134 64.2223H275.02C275.012 64.3103 275.002 64.4003 274.99 64.4923C274.978 64.5843 274.966 64.6743 274.954 64.7623L274.492 67.4563C274.48 67.5323 274.442 67.5943 274.378 67.6423C274.318 67.6903 274.248 67.7143 274.168 67.7143H273.304C273.224 67.7143 273.152 67.6903 273.088 67.6423C273.028 67.5943 272.992 67.5343 272.98 67.4623L272.302 63.5743H273.226L273.658 66.4543C273.67 66.5423 273.68 66.6363 273.688 66.7363C273.696 66.8363 273.704 66.9423 273.712 67.0543H273.826C273.842 66.9583 273.858 66.8583 273.874 66.7543C273.894 66.6463 273.91 66.5463 273.922 66.4543L274.378 63.8563C274.39 63.7723 274.426 63.7043 274.486 63.6523C274.546 63.6003 274.618 63.5743 274.702 63.5743H275.458C275.542 63.5743 275.612 63.6003 275.668 63.6523C275.728 63.7043 275.764 63.7723 275.776 63.8563L276.238 66.4603C276.254 66.5563 276.27 66.6563 276.286 66.7603C276.302 66.8603 276.316 66.9583 276.328 67.0543H276.448C276.456 66.9583 276.464 66.8583 276.472 66.7543C276.484 66.6503 276.494 66.5543 276.502 66.4663L276.928 63.5743H277.852Z" fill="#172A3A"/>
<path d="M280.243 63.5743V67.7143H279.326V63.5743H280.243ZM281.78 65.1643V65.8543H280.195V65.1643H281.78ZM282.632 63.5743V67.7143H281.714V63.5743H282.632Z" fill="#172A3A"/>
<path d="M285.22 63.5563C285.444 63.5563 285.67 63.5583 285.898 63.5623C286.126 63.5623 286.35 63.5663 286.57 63.5743C286.79 63.5823 286.996 63.5963 287.188 63.6163L287.146 64.2823H285.556C285.456 64.2823 285.38 64.3083 285.328 64.3603C285.28 64.4123 285.256 64.4883 285.256 64.5883V66.7003C285.256 66.8003 285.28 66.8763 285.328 66.9283C285.38 66.9803 285.456 67.0063 285.556 67.0063H287.146L287.188 67.6723C286.996 67.6883 286.79 67.7023 286.57 67.7143C286.35 67.7223 286.126 67.7263 285.898 67.7263C285.67 67.7303 285.444 67.7323 285.22 67.7323C284.956 67.7323 284.742 67.6563 284.578 67.5043C284.418 67.3483 284.338 67.1463 284.338 66.8983V64.3903C284.338 64.1383 284.418 63.9363 284.578 63.7843C284.742 63.6323 284.956 63.5563 285.22 63.5563ZM284.446 65.2363H286.924V65.8843H284.446V65.2363Z" fill="#172A3A"/>
<path d="M290.333 63.5143C290.697 63.5143 290.991 63.5523 291.215 63.6283C291.443 63.7003 291.609 63.8263 291.713 64.0063C291.821 64.1823 291.875 64.4283 291.875 64.7443C291.875 64.9363 291.849 65.1063 291.797 65.2543C291.749 65.3983 291.667 65.5143 291.551 65.6023C291.435 65.6903 291.277 65.7463 291.077 65.7703V65.8003C291.149 65.8123 291.223 65.8403 291.299 65.8843C291.379 65.9283 291.453 65.9943 291.521 66.0823C291.589 66.1663 291.639 66.2803 291.671 66.4243L292.031 67.7143H291.065L290.747 66.4543C290.711 66.3183 290.657 66.2243 290.585 66.1723C290.517 66.1203 290.421 66.0943 290.297 66.0943C290.025 66.0943 289.795 66.0943 289.607 66.0943C289.423 66.0903 289.267 66.0863 289.139 66.0823C289.015 66.0783 288.903 66.0743 288.803 66.0703L288.821 65.4043H290.315C290.475 65.4043 290.601 65.3883 290.693 65.3563C290.789 65.3203 290.855 65.2583 290.891 65.1703C290.931 65.0823 290.951 64.9603 290.951 64.8043C290.951 64.6443 290.931 64.5223 290.891 64.4383C290.855 64.3503 290.789 64.2903 290.693 64.2583C290.601 64.2223 290.475 64.2043 290.315 64.2043C289.939 64.2043 289.621 64.2063 289.361 64.2103C289.101 64.2143 288.923 64.2203 288.827 64.2283L288.737 63.5743C288.905 63.5543 289.063 63.5403 289.211 63.5323C289.359 63.5243 289.521 63.5203 289.697 63.5203C289.873 63.5163 290.085 63.5143 290.333 63.5143ZM289.643 63.5743V67.7143H288.737V63.5743H289.643Z" fill="#172A3A"/>
<path d="M294.373 63.5563C294.597 63.5563 294.823 63.5583 295.051 63.5623C295.279 63.5623 295.503 63.5663 295.723 63.5743C295.943 63.5823 296.149 63.5963 296.341 63.6163L296.299 64.2823H294.709C294.609 64.2823 294.533 64.3083 294.481 64.3603C294.433 64.4123 294.409 64.4883 294.409 64.5883V66.7003C294.409 66.8003 294.433 66.8763 294.481 66.9283C294.533 66.9803 294.609 67.0063 294.709 67.0063H296.299L296.341 67.6723C296.149 67.6883 295.943 67.7023 295.723 67.7143C295.503 67.7223 295.279 67.7263 295.051 67.7263C294.823 67.7303 294.597 67.7323 294.373 67.7323C294.109 67.7323 293.895 67.6563 293.731 67.5043C293.571 67.3483 293.491 67.1463 293.491 66.8983V64.3903C293.491 64.1383 293.571 63.9363 293.731 63.7843C293.895 63.6323 294.109 63.5563 294.373 63.5563ZM293.599 65.2363H296.077V65.8843H293.599V65.2363Z" fill="#172A3A"/>
</svg>
