<svg width="47" height="47" viewBox="0 0 47 47" fill="none" xmlns="http://www.w3.org/2000/svg">
<g clip-path="url(#clip0_544_426)">
<path d="M43.3964 0.195312H3.69609C2.7842 0.195312 1.90966 0.557559 1.26486 1.20236C0.620059 1.84716 0.257812 2.7217 0.257812 3.63359V43.3339C0.257812 44.2457 0.620059 45.1203 1.26486 45.7651C1.90966 46.4099 2.7842 46.7721 3.69609 46.7721H43.3964C44.3082 46.7721 45.1828 46.4099 45.8276 45.7651C46.4724 45.1203 46.8346 44.2457 46.8346 43.3339V3.63359C46.8346 2.7217 46.4724 1.84716 45.8276 1.20236C45.1828 0.557559 44.3082 0.195312 43.3964 0.195312ZM14.1403 39.8729H7.1376V17.6293H14.1403V39.8729ZM10.6341 14.5468C9.83976 14.5423 9.06455 14.3026 8.4063 13.858C7.74805 13.4134 7.23626 12.7837 6.93553 12.0485C6.63479 11.3133 6.55858 10.5055 6.71653 9.72698C6.87447 8.94849 7.25948 8.23423 7.82297 7.67435C8.38645 7.11447 9.10317 6.73405 9.88265 6.58111C10.6621 6.42817 11.4695 6.50956 12.2027 6.81501C12.936 7.12047 13.5624 7.63628 14.0028 8.29737C14.4432 8.95846 14.6778 9.7352 14.6772 10.5295C14.6847 11.0614 14.5851 11.5892 14.3842 12.0817C14.1833 12.5742 13.8854 13.0212 13.5081 13.3961C13.1308 13.771 12.6819 14.0661 12.1881 14.2637C11.6944 14.4614 11.1659 14.5577 10.6341 14.5468ZM39.9516 39.8923H32.9522V27.7403C32.9522 24.1565 31.4287 23.0503 29.4621 23.0503C27.3856 23.0503 25.3478 24.6158 25.3478 27.8309V39.8923H18.3451V17.6455H25.0794V20.7279H25.1699C25.846 19.3597 28.2136 17.0212 31.8265 17.0212C35.7338 17.0212 39.9548 19.3403 39.9548 26.1328L39.9516 39.8923Z" fill="#172A3A" fill-opacity="0.75"/>
</g>
<defs>
<clipPath id="clip0_544_426">
<rect width="46.5768" height="46.5768" fill="white" transform="translate(0.257812 0.195312)"/>
</clipPath>
</defs>
</svg>
