<svg width="47" height="47" viewBox="0 0 47 47" fill="none" xmlns="http://www.w3.org/2000/svg">
<g clip-path="url(#clip0_544_428)">
<path d="M46.5768 23.4837C46.5768 10.622 36.1501 0.195312 23.2884 0.195312C10.4267 0.195312 0 10.622 0 23.4837C0 34.4051 7.51936 43.5695 17.6629 46.0865V30.6007H12.8608V23.4837H17.6629V20.4171C17.6629 12.4907 21.2502 8.81668 29.0323 8.81668C30.5078 8.81668 33.0537 9.10639 34.0952 9.39517V15.8461C33.5456 15.7883 32.5907 15.7594 31.4049 15.7594C27.5865 15.7594 26.111 17.2061 26.111 20.9667V23.4837H33.7179L32.4109 30.6007H26.111V46.6017C37.6425 45.209 46.5778 35.3906 46.5778 23.4837H46.5768Z" fill="#172A3A" fill-opacity="0.75"/>
<path d="M32.4095 30.5965L33.7165 23.4795H26.1095V20.9625C26.1095 17.2019 27.5851 15.7552 31.4035 15.7552C32.5893 15.7552 33.5441 15.7841 34.0937 15.8419V9.39098C33.0523 9.10128 30.5064 8.8125 29.0308 8.8125C21.2488 8.8125 17.6614 12.4865 17.6614 20.4129V23.4795H12.8594V30.5965H17.6614V46.0823C19.463 46.5295 21.3475 46.7679 23.287 46.7679C24.2418 46.7679 25.1836 46.7093 26.1086 46.5975V30.5965H32.4086H32.4095Z" fill="white"/>
</g>
<defs>
<clipPath id="clip0_544_428">
<rect width="46.5768" height="46.5768" fill="white" transform="translate(0 0.195312)"/>
</clipPath>
</defs>
</svg>
